<?xml version="1.0" encoding="utf-8"?>
<!-- Generator: Adobe Illustrator 16.0.0, SVG Export Plug-In . SVG Version: 6.00 Build 0)  -->
<!DOCTYPE svg PUBLIC "-//W3C//DTD SVG 1.1//EN" "http://www.w3.org/Graphics/SVG/1.1/DTD/svg11.dtd">
<svg version="1.1" id="Layer_1" xmlns="http://www.w3.org/2000/svg" xmlns:xlink="http://www.w3.org/1999/xlink" x="0px" y="0px"
	 width="371.854px" height="123px" viewBox="0 0 371.854 123" enable-background="new 0 0 371.854 123" xml:space="preserve">
<g>
	<g>
		<g>
			<g>
				<path fill="#00BFDD" d="M104.288,45.9l1.659-1.991c1.991,2.323,5.2,4.536,9.625,4.536c6.306,0,8.186-3.54,8.186-6.195
					c0-9.071-18.474-4.314-18.474-15.155c0-5.089,4.536-8.187,10.177-8.187c4.646,0,8.075,1.659,10.509,4.314l-1.77,1.992
					c-2.212-2.655-5.42-3.872-8.85-3.872c-4.093,0-7.19,2.323-7.19,5.642c0,7.965,18.474,3.54,18.474,15.044
					c0,3.982-2.655,8.74-10.952,8.74C110.483,50.878,106.722,48.776,104.288,45.9z"/>
				<path fill="#00BFDD" d="M157.94,50.325V23.001l-11.283,27.324h-0.996l-11.284-27.213v27.213h-2.655V19.461h3.983l10.509,25.443
					l10.509-25.443h3.982v30.864H157.94z"/>
				<path fill="#00BFDD" d="M189.468,50.325l-3.098-7.634h-16.262l-3.097,7.634h-3.097l12.611-30.864h3.319l12.722,30.864H189.468z
					 M178.295,22.227l-7.301,18.032h14.603L178.295,22.227z"/>
				<path fill="#00BFDD" d="M214.026,50.325l-8.628-12.722h-6.748v12.722h-2.655V19.461h11.504c5.311,0,9.403,3.429,9.403,9.071
					c0,5.642-3.982,8.739-8.518,8.85l8.96,12.943H214.026z M214.137,28.421c0-3.872-2.766-6.637-6.858-6.637h-8.628v13.274h8.628
					C211.371,35.059,214.137,32.293,214.137,28.421z"/>
				<path fill="#00BFDD" d="M229.735,50.325V21.784h-10.067V19.35h22.899v2.434h-10.066v28.541H229.735z"/>
			</g>
			<g>
				<path fill="#FFFFFF" d="M106.058,96.565V65.701h2.655v28.431h14.934v2.434H106.058z"/>
				<path fill="#FFFFFF" d="M125.638,85.393c0-6.527,4.536-11.727,10.73-11.727c6.748,0,10.509,5.421,10.509,11.837v0.664h-18.695
					c0.222,4.868,3.43,8.85,8.739,8.85c2.876,0,5.42-1.105,7.302-3.097l1.216,1.548c-2.212,2.323-5.089,3.65-8.739,3.65
					C130.285,97.118,125.638,92.251,125.638,85.393z M136.369,75.769c-5.31,0-7.964,4.646-8.075,8.518h16.262
					C144.444,80.414,142.011,75.769,136.369,75.769z"/>
				<path fill="#FFFFFF" d="M166.237,96.565v-2.654c-1.992,2.212-4.536,3.207-7.633,3.207c-3.872,0-7.854-2.655-7.854-7.412
					c0-4.866,3.982-7.411,7.854-7.411c3.098,0,5.642,0.995,7.633,3.208v-4.536c0-3.318-2.655-5.088-5.974-5.088
					c-2.766,0-4.978,0.995-6.969,3.318l-1.328-1.659c2.323-2.544,4.868-3.761,8.628-3.761c4.535,0,8.186,2.212,8.186,7.189v15.71
					h-2.544V96.565z M166.237,92.141v-4.868c-1.549-1.991-4.093-3.097-6.748-3.097c-3.65,0-6.085,2.323-6.085,5.53
					c0,3.099,2.435,5.532,6.085,5.532C162.144,95.238,164.688,94.132,166.237,92.141z"/>
				<path fill="#FFFFFF" d="M174.977,96.565V74.219h2.434v3.873c1.88-2.545,4.424-4.314,7.522-4.314v2.654
					c-0.442-0.11-0.774-0.11-1.217-0.11c-2.212,0-5.31,1.991-6.305,3.982v16.262H174.977z"/>
				<path fill="#FFFFFF" d="M203.517,96.565V81.41c0-4.314-2.212-5.642-5.42-5.642c-2.876,0-5.863,1.77-7.301,3.871v16.926h-2.434
					V74.219h2.434v3.43c1.658-1.991,4.757-3.982,8.074-3.982c4.537,0,7.081,2.213,7.081,7.301v15.599H203.517z"/>
				<path fill="#FFFFFF" d="M211.703,68.799c0-0.996,0.885-1.77,1.881-1.77c0.995,0,1.88,0.773,1.88,1.77s-0.885,1.881-1.88,1.881
					C212.478,70.68,211.703,69.795,211.703,68.799z M212.256,96.565V74.219h2.435v22.347H212.256z"/>
				<path fill="#FFFFFF" d="M236.151,96.565V81.41c0-4.314-2.213-5.642-5.421-5.642c-2.877,0-5.863,1.77-7.301,3.871v16.926h-2.434
					V74.219h2.434v3.43c1.659-1.991,4.756-3.982,8.075-3.982c4.535,0,7.08,2.213,7.08,7.301v15.599H236.151z"/>
				<path fill="#FFFFFF" d="M244.89,102.207l1.438-1.881c1.991,2.323,4.093,3.098,7.413,3.098c4.092,0,7.633-1.991,7.633-7.191
					v-3.539c-1.55,2.213-4.426,4.204-7.745,4.204c-5.974,0-9.956-4.536-9.956-11.616c0-7.079,4.094-11.726,9.956-11.726
					c3.209,0,5.975,1.66,7.745,4.203v-3.649h2.433v22.124c0,6.858-4.646,9.292-10.065,9.292
					C249.979,105.637,247.546,104.973,244.89,102.207z M261.374,90.813V79.972c-1.328-2.213-4.205-4.093-7.302-4.093
					c-4.979,0-7.854,4.093-7.854,9.514c0,5.42,2.876,9.514,7.854,9.514C257.059,94.796,260.046,92.914,261.374,90.813z"/>
				<path fill="#FFFFFF" d="M279.294,92.251l1.66-1.991c1.99,2.323,5.198,4.536,9.623,4.536c6.306,0,8.187-3.541,8.187-6.196
					c0-9.071-18.475-4.313-18.475-15.154c0-5.089,4.536-8.187,10.178-8.187c4.646,0,8.076,1.659,10.51,4.314l-1.771,1.991
					c-2.213-2.655-5.421-3.872-8.85-3.872c-4.093,0-7.19,2.323-7.19,5.642c0,7.965,18.474,3.54,18.474,15.045
					c0,3.982-2.654,8.739-10.951,8.739C285.489,97.118,281.617,95.017,279.294,92.251z"/>
				<path fill="#FFFFFF" d="M321.773,96.565v-3.319c-1.882,1.992-4.757,3.872-8.076,3.872c-4.535,0-7.079-2.102-7.079-7.19V74.219
					h2.434v15.156c0,4.314,2.213,5.531,5.42,5.531c2.877,0,5.754-1.66,7.302-3.651V74.219h2.434v22.347H321.773z"/>
				<path fill="#FFFFFF" d="M329.849,68.799c0-0.996,0.885-1.77,1.881-1.77s1.881,0.773,1.881,1.77s-0.885,1.881-1.881,1.881
					S329.849,69.795,329.849,68.799z M330.513,96.565V74.219h2.434v22.347H330.513z"/>
				<path fill="#FFFFFF" d="M339.694,92.251v-15.93h-3.65v-2.103h3.65v-6.083h2.434v6.083h4.536v2.103h-4.536V91.92
					c0,1.77,0.774,3.097,2.323,3.097c1.106,0,1.991-0.554,2.544-1.105l0.885,1.88c-0.885,0.886-1.991,1.438-3.761,1.438
					C341.133,97.118,339.694,95.348,339.694,92.251z"/>
				<path fill="#FFFFFF" d="M349.43,85.393c0-6.527,4.535-11.727,10.73-11.727c6.747,0,10.509,5.421,10.509,11.837v0.664h-18.695
					c0.222,4.868,3.43,8.85,8.739,8.85c2.877,0,5.42-1.105,7.301-3.097l1.218,1.548c-2.213,2.323-5.09,3.65-8.739,3.65
					C354.186,97.118,349.43,92.251,349.43,85.393z M360.271,75.769c-5.311,0-7.965,4.646-8.075,8.518h16.261
					C368.346,80.414,365.802,75.769,360.271,75.769z"/>
			</g>
		</g>
	</g>
	<g>
		<path fill="#81BC41" d="M16.674,64.595l-0.442-1.326c-1.991-7.413-1.327-14.935,1.659-22.457
			c3.762-9.182,10.289-15.709,19.359-19.47c4.535-1.881,9.071-2.876,13.606-2.876c7.412,1.659,13.938,5.31,19.581,10.952
			c7.965,7.965,11.948,17.479,11.948,28.762c0,8.851-2.545,16.705-7.523,23.563c-2.876,2.434-6.195,4.535-9.956,6.084
			c-9.182,3.762-18.363,3.872-27.545,0.11c-1.106-0.442-2.102-0.885-3.097-1.438c-1.991-0.996-3.762-2.103-5.421-3.429
			c-0.774-0.554-1.438-1.106-2.212-1.771c-0.774-0.663-1.549-1.438-2.324-2.212c-1.659-1.88-3.208-3.982-4.535-6.307l-0.553-1.105
			c0,0,0,0.111,0.11,0.111l0,0c1.107,1.88,2.324,3.539,3.651,5.088c0,0,0.111,0.111,0.222,0.222
			c0.553,0.553,1.105,1.106,1.659,1.659c0.111,0.11,0.332,0.222,0.443,0.332c0.553,0.553,1.106,0.995,1.77,1.438
			c1.991,1.326,4.093,2.545,6.416,3.539c0.996,0.442,2.102,0.775,3.098,1.106c6.416,1.881,12.722,1.438,19.027-1.216
			c3.098-1.328,5.752-2.877,8.076-4.979c2.544-2.213,4.536-4.867,6.194-7.854c0.554-0.885,0.996-1.881,1.328-2.986
			c0.332-0.665,0.553-1.328,0.774-1.991c0.553-1.66,0.995-3.319,1.217-4.979c0-0.11,0-0.221,0-0.332
			c0.111-0.885,0.221-1.659,0.221-2.544c0.111-4.093-0.663-8.186-2.322-12.279c-3.098-7.412-8.297-12.611-15.819-15.598
			c-7.412-2.987-14.824-2.987-22.125,0.11c-7.412,3.098-12.611,8.297-15.708,15.709C15.347,52.316,15.016,58.511,16.674,64.595z"/>
		<path fill="#5A2C81" d="M44.662,24.66c-17.811,0-32.302,14.492-32.302,32.302c0,17.81,14.491,32.302,32.302,32.302
			s32.191-14.603,32.191-32.413S62.473,24.66,44.662,24.66z M44.773,65.48c-5.2,0-9.514-4.204-9.514-9.514
			c0-5.31,4.204-9.514,9.514-9.514c5.199,0,9.514,4.204,9.514,9.514C54.287,61.276,49.972,65.48,44.773,65.48z"/>
		<path fill="#007DA4" d="M54.287,86.499c-18.364,0-33.187-14.935-33.187-33.188s14.934-33.187,33.187-33.187
			c0.664,0,1.327,0.11,1.991,0.11c-4.536-1.77-9.403-2.655-14.492-2.655C19.329,17.47,1.076,35.612,1.076,58.068
			c0,22.457,18.253,40.709,40.709,40.709c15.819,0,29.537-9.071,36.285-22.346C71.986,82.627,63.579,86.499,54.287,86.499z"/>
		<path fill="#00BFDD" d="M20.989,45.236c0-9.182,2.323-17.7,6.416-25.222C12.028,25.877,1.076,40.701,1.076,58.068
			c0,22.457,18.253,40.709,40.709,40.709c5.642,0,11.063-1.216,16.041-3.318C36.476,88.821,20.989,68.799,20.989,45.236z"/>
		<path fill="#FFFFFF" d="M42.782,42.581c-7.965,0-14.492,6.527-14.492,14.492c0,7.965,6.527,14.491,14.492,14.491
			s14.491-6.526,14.491-14.491C57.273,49.108,50.747,42.581,42.782,42.581L42.782,42.581z"/>
		<path fill="#81BC41" d="M44.773,46.563c5.199,0,9.403,4.204,9.403,9.403s-4.204,9.402-9.403,9.402c-5.2,0-9.403-4.203-9.403-9.402
			C35.37,50.878,39.573,46.563,44.773,46.563 M42.782,42.581c-7.965,0-14.492,6.527-14.492,14.492
			c0,7.965,6.527,14.491,14.492,14.491s14.491-6.526,14.491-14.491C57.273,49.108,50.747,42.581,42.782,42.581L42.782,42.581z"/>
	</g>
</g>
</svg>
